<?xml version="1.0" encoding="utf-8"?>
<!-- Generator: Adobe Illustrator 16.0.0, SVG Export Plug-In . SVG Version: 6.00 Build 0)  -->
<!DOCTYPE svg PUBLIC "-//W3C//DTD SVG 1.1//EN" "http://www.w3.org/Graphics/SVG/1.1/DTD/svg11.dtd">
<svg version="1.1" id="Warstwa_1" xmlns="http://www.w3.org/2000/svg" xmlns:xlink="http://www.w3.org/1999/xlink" x="0px" y="0px"
	 width="222.868px" height="45.32px" viewBox="-28.656 -5.053 222.868 45.32" enable-background="new -28.656 -5.053 222.868 45.32"
	 xml:space="preserve">
<path d="M263.041-56.126c0,1.043,0,2.087,0,3.13c-0.105,0.001-0.212,0.002-0.318,0.004c0-1.053,0-2.105,0-3.158
	C262.829-56.142,262.936-56.134,263.041-56.126z"/>
<g>
	<path fill="#FFFFFF" d="M34.081,24.266c-0.889-0.498-1.596-1.229-2.118-2.193c-0.522-0.964-0.784-2.119-0.784-3.461
		c0-1.891,0.346-3.56,1.036-5.004c0.691-1.443,1.63-2.556,2.819-3.341c1.188-0.783,2.504-1.175,3.948-1.175
		c1.107,0,2.105,0.249,2.995,0.746c0.889,0.498,1.596,1.229,2.119,2.193c0.523,0.965,0.784,2.119,0.784,3.463
		c0,1.891-0.345,3.559-1.036,5.001c-0.691,1.443-1.631,2.557-2.819,3.341c-1.188,0.784-2.504,1.177-3.948,1.177
		C35.968,25.013,34.971,24.765,34.081,24.266z M39.83,21.914c0.739-0.599,1.309-1.428,1.708-2.492
		c0.398-1.063,0.597-2.268,0.597-3.612c0-1.48-0.311-2.604-0.933-3.37c-0.623-0.764-1.425-1.147-2.408-1.147
		c-0.959,0-1.805,0.295-2.539,0.886c-0.734,0.593-1.307,1.418-1.717,2.484c-0.411,1.063-0.616,2.274-0.616,3.629
		c0,1.482,0.311,2.604,0.933,3.37s1.425,1.147,2.409,1.147C38.234,22.81,39.089,22.511,39.83,21.914z"/>
	<path fill="#FFFFFF" d="M46.25,24.266c-0.192-0.498-0.289-1.294-0.289-2.389c0-1.618,0.229-3.154,0.69-4.611
		c0.112-0.361,0.296-0.625,0.551-0.792c0.255-0.169,0.613-0.253,1.073-0.253c0.249,0,0.423,0.031,0.523,0.094
		c0.099,0.062,0.149,0.181,0.149,0.355c0,0.199-0.093,0.647-0.28,1.342c-0.125,0.499-0.224,0.934-0.299,1.309
		c-0.074,0.372-0.137,0.834-0.187,1.38c0.411-1.07,0.872-1.94,1.382-2.612c0.511-0.673,1.011-1.151,1.502-1.438
		c0.491-0.285,0.942-0.429,1.353-0.429c0.809,0,1.214,0.404,1.214,1.214c0,0.485-0.137,1.362-0.411,2.631
		c-0.237,1.083-0.354,1.799-0.354,2.147c0,0.497,0.18,0.746,0.542,0.746c0.248,0,0.544-0.151,0.887-0.456
		c0.342-0.307,0.799-0.802,1.372-1.484c0.149-0.175,0.317-0.262,0.504-0.262c0.162,0,0.29,0.074,0.383,0.223
		c0.094,0.151,0.14,0.356,0.14,0.617c0,0.497-0.118,0.882-0.354,1.158c-0.535,0.658-1.11,1.2-1.727,1.623
		c-0.616,0.423-1.316,0.635-2.1,0.635c-0.635,0-1.114-0.184-1.437-0.551c-0.324-0.368-0.485-0.899-0.485-1.597
		c0-0.348,0.087-0.97,0.261-1.865c0.161-0.785,0.242-1.326,0.242-1.625c0-0.197-0.068-0.298-0.205-0.298
		c-0.162,0-0.389,0.209-0.681,0.626c-0.292,0.416-0.592,0.968-0.896,1.65c-0.305,0.685-0.551,1.406-0.738,2.165
		c-0.136,0.586-0.295,0.981-0.476,1.186c-0.181,0.205-0.464,0.309-0.849,0.309C46.776,25.013,46.443,24.765,46.25,24.266z"/>
	<path fill="#FFFFFF" d="M62.638,20.979c0.092,0.151,0.14,0.356,0.14,0.617c0,0.497-0.119,0.882-0.354,1.158
		c-0.537,0.658-1.118,1.2-1.746,1.623c-0.628,0.423-1.341,0.635-2.139,0.635c-1.094,0-1.906-0.498-2.435-1.494
		c-0.528-0.995-0.792-2.283-0.792-3.862c0-1.519,0.195-3.248,0.587-5.19c0.392-1.94,0.971-3.608,1.735-5.001
		c0.765-1.395,1.678-2.092,2.736-2.092c0.597,0,1.066,0.278,1.409,0.831c0.342,0.554,0.513,1.348,0.513,2.379
		c0,1.481-0.412,3.199-1.232,5.151c-0.822,1.955-1.935,3.889-3.342,5.806c0.087,0.51,0.23,0.874,0.43,1.092
		c0.199,0.217,0.461,0.326,0.783,0.326c0.512,0,0.958-0.146,1.344-0.438c0.386-0.292,0.878-0.792,1.475-1.502
		c0.15-0.175,0.317-0.262,0.504-0.262C62.416,20.757,62.544,20.831,62.638,20.979z M58.989,10.771
		c-0.361,1.033-0.679,2.314-0.952,3.845c-0.274,1.531-0.423,2.998-0.448,4.404c0.884-1.455,1.586-2.915,2.11-4.377
		c0.522-1.461,0.784-2.796,0.784-4.003c0-0.946-0.175-1.418-0.522-1.418C59.673,9.222,59.349,9.738,58.989,10.771z"/>
	<path fill="#FFFFFF" d="M61.798,24.153c-0.368-0.573-0.549-1.33-0.549-2.276c0-0.562,0.071-1.279,0.214-2.156
		c0.143-0.878,0.327-1.694,0.549-2.455c0.113-0.397,0.262-0.67,0.448-0.822c0.187-0.148,0.486-0.224,0.896-0.224
		c0.635,0,0.953,0.212,0.953,0.636c0,0.31-0.119,1.033-0.356,2.164c-0.297,1.369-0.448,2.295-0.448,2.781
		c0,0.373,0.05,0.66,0.15,0.859c0.099,0.198,0.267,0.298,0.503,0.298c0.225,0,0.504-0.156,0.839-0.466
		c0.337-0.312,0.786-0.804,1.345-1.475c0.148-0.175,0.317-0.262,0.503-0.262c0.162,0,0.289,0.074,0.382,0.223
		c0.094,0.151,0.141,0.356,0.141,0.617c0,0.497-0.119,0.882-0.354,1.158c-1.231,1.505-2.383,2.258-3.454,2.258
		C62.753,25.013,62.166,24.726,61.798,24.153z M62.535,14.625c-0.261-0.242-0.392-0.581-0.392-1.017
		c0-0.435,0.171-0.799,0.513-1.091c0.342-0.293,0.768-0.439,1.279-0.439c0.46,0,0.834,0.112,1.12,0.336
		c0.288,0.223,0.429,0.541,0.429,0.953c0,0.497-0.162,0.893-0.486,1.185c-0.323,0.293-0.751,0.439-1.286,0.439
		C63.188,14.99,62.796,14.868,62.535,14.625z"/>
	<path fill="#FFFFFF" d="M66.186,24.266c-0.194-0.498-0.291-1.294-0.291-2.389c0-1.618,0.23-3.154,0.69-4.611
		c0.112-0.361,0.296-0.625,0.551-0.792c0.254-0.169,0.613-0.253,1.072-0.253c0.25,0,0.424,0.031,0.523,0.094
		c0.101,0.062,0.149,0.181,0.149,0.355c0,0.199-0.092,0.647-0.28,1.342c-0.125,0.499-0.224,0.934-0.297,1.309
		c-0.076,0.372-0.138,0.834-0.187,1.38c0.411-1.07,0.871-1.94,1.381-2.612c0.51-0.673,1.011-1.151,1.501-1.438
		c0.493-0.285,0.944-0.429,1.354-0.429c0.809,0,1.214,0.404,1.214,1.214c0,0.485-0.138,1.362-0.412,2.631
		c-0.235,1.083-0.354,1.799-0.354,2.147c0,0.497,0.181,0.746,0.541,0.746c0.249,0,0.544-0.151,0.886-0.456
		c0.343-0.307,0.799-0.802,1.372-1.484c0.15-0.175,0.319-0.262,0.505-0.262c0.161,0,0.289,0.074,0.383,0.223
		c0.092,0.151,0.14,0.356,0.14,0.617c0,0.497-0.119,0.882-0.354,1.158c-0.537,0.658-1.112,1.2-1.727,1.623
		c-0.617,0.423-1.315,0.635-2.101,0.635c-0.633,0-1.113-0.184-1.437-0.551c-0.323-0.368-0.485-0.899-0.485-1.597
		c0-0.348,0.087-0.97,0.261-1.865c0.162-0.785,0.244-1.326,0.244-1.625c0-0.197-0.07-0.298-0.206-0.298
		c-0.162,0-0.39,0.209-0.681,0.626c-0.293,0.416-0.59,0.968-0.896,1.65c-0.307,0.685-0.55,1.406-0.737,2.165
		c-0.138,0.586-0.296,0.981-0.477,1.186c-0.179,0.205-0.463,0.309-0.85,0.309C66.71,25.013,66.378,24.765,66.186,24.266z"/>
	<path fill="#FFFFFF" d="M83.823,20.979c0.094,0.151,0.139,0.356,0.139,0.617c0,0.497-0.118,0.882-0.353,1.158
		c-0.46,0.559-1.111,1.074-1.95,1.547c-0.84,0.475-1.74,0.711-2.698,0.711c-1.306,0-2.321-0.355-3.042-1.064
		c-0.723-0.709-1.083-1.68-1.083-2.912c0-0.857,0.18-1.657,0.541-2.398c0.36-0.74,0.862-1.327,1.503-1.764
		c0.641-0.435,1.365-0.653,2.175-0.653c0.721,0,1.301,0.214,1.734,0.646c0.436,0.428,0.654,1.009,0.654,1.745
		c0,0.857-0.308,1.594-0.925,2.211c-0.614,0.615-1.658,1.104-3.125,1.464c0.311,0.573,0.902,0.86,1.772,0.86
		c0.561,0,1.199-0.196,1.914-0.589c0.716-0.391,1.334-0.904,1.856-1.539c0.151-0.175,0.317-0.262,0.504-0.262
		C83.602,20.757,83.73,20.831,83.823,20.979z M77.57,18.852c-0.317,0.537-0.477,1.184-0.477,1.942v0.037
		c0.735-0.175,1.314-0.436,1.736-0.784c0.424-0.348,0.636-0.753,0.636-1.214c0-0.234-0.065-0.424-0.197-0.568
		c-0.13-0.144-0.308-0.214-0.531-0.214C78.277,18.05,77.889,18.318,77.57,18.852z"/>
	<path fill="#FFFFFF" d="M103.534,21.026c0.091,0.155,0.139,0.354,0.139,0.589c0,0.287-0.045,0.511-0.131,0.671
		c-0.086,0.163-0.225,0.305-0.409,0.431c-0.736,0.486-1.906,1.281-3.512,2.389c-0.484,2.577-1.113,4.604-1.885,6.086
		c-0.771,1.479-1.748,2.22-2.931,2.22c-0.635,0-1.151-0.195-1.55-0.587c-0.396-0.393-0.597-0.906-0.597-1.541
		c0-0.585,0.131-1.176,0.394-1.772c0.26-0.598,0.749-1.288,1.464-2.072c0.718-0.783,1.727-1.68,3.032-2.688l0.057-0.354
		c-0.982,0.41-1.946,0.616-2.891,0.616c-1.395,0-2.62-0.272-3.678-0.813c-1.058-0.541-1.879-1.31-2.465-2.305
		c-0.584-0.996-0.878-2.153-0.878-3.472c0-1.843,0.351-3.469,1.046-4.882c0.696-1.411,1.657-2.506,2.883-3.284
		c1.226-0.777,2.599-1.166,4.117-1.166c1.456,0,2.548,0.338,3.275,1.016c0.729,0.679,1.093,1.578,1.093,2.698
		c0,0.735-0.134,1.322-0.402,1.763c-0.268,0.443-0.65,0.664-1.147,0.664c-0.335,0-0.605-0.082-0.812-0.242
		c-0.206-0.163-0.308-0.385-0.308-0.673c0-0.123,0.024-0.336,0.075-0.633c0.072-0.35,0.112-0.624,0.112-0.822
		c0-0.523-0.161-0.927-0.479-1.214c-0.315-0.287-0.849-0.428-1.593-0.428c-0.909,0-1.753,0.261-2.529,0.783
		c-0.778,0.523-1.405,1.304-1.876,2.344c-0.474,1.038-0.709,2.286-0.709,3.742c0,1.493,0.406,2.648,1.223,3.462
		c0.813,0.815,1.991,1.224,3.536,1.224c0.856,0,1.753-0.194,2.688-0.58l0.262-2.276h-1.905c-0.348,0-0.616-0.084-0.801-0.253
		c-0.188-0.168-0.28-0.444-0.28-0.831c0-0.346,0.093-0.621,0.28-0.821c0.185-0.198,0.434-0.297,0.744-0.297h3.49
		c0.273,0,0.504,0.09,0.683,0.271c0.18,0.181,0.252,0.439,0.215,0.775c-0.038,0.397-0.161,1.3-0.375,2.706l-0.204,1.42
		c0.996-0.748,1.906-1.395,2.726-1.942c0.163-0.1,0.305-0.149,0.431-0.149C103.312,20.794,103.438,20.873,103.534,21.026z
		 M96.077,30.499c0.386-0.733,0.744-1.916,1.081-3.546c-0.944,0.81-1.627,1.54-2.042,2.193c-0.42,0.653-0.626,1.229-0.626,1.727
		c0,0.484,0.174,0.728,0.521,0.728C95.336,31.601,95.691,31.232,96.077,30.499z"/>
	<path fill="#FFFFFF" d="M102.795,24.172c-0.46-0.56-0.69-1.293-0.69-2.203c0-0.994,0.23-1.937,0.69-2.826
		c0.461-0.89,1.071-1.606,1.837-2.147c0.766-0.542,1.579-0.812,2.438-0.812c0.272,0,0.457,0.053,0.548,0.159
		c0.094,0.104,0.172,0.294,0.236,0.569c0.259-0.05,0.532-0.075,0.818-0.075c0.61,0,0.916,0.218,0.916,0.653
		c0,0.261-0.094,0.885-0.281,1.867c-0.284,1.431-0.429,2.428-0.429,2.986c0,0.187,0.046,0.336,0.14,0.448s0.214,0.168,0.364,0.168
		c0.238,0,0.521-0.151,0.858-0.456c0.338-0.307,0.79-0.802,1.363-1.484c0.149-0.175,0.318-0.262,0.503-0.262
		c0.163,0,0.289,0.074,0.383,0.223c0.094,0.151,0.142,0.356,0.142,0.617c0,0.497-0.118,0.882-0.356,1.158
		c-0.511,0.633-1.052,1.169-1.624,1.603c-0.573,0.437-1.127,0.655-1.66,0.655c-0.412,0-0.786-0.141-1.129-0.421
		c-0.343-0.279-0.6-0.662-0.773-1.148c-0.648,1.046-1.465,1.569-2.446,1.569C103.871,25.013,103.256,24.732,102.795,24.172z
		 M106.099,22.643c0.249-0.324,0.428-0.754,0.54-1.289l0.69-3.434c-0.521,0.012-1.003,0.208-1.447,0.587
		c-0.439,0.38-0.793,0.882-1.053,1.503c-0.262,0.622-0.393,1.282-0.393,1.979c0,0.385,0.077,0.672,0.235,0.857
		c0.155,0.188,0.369,0.28,0.643,0.28C105.587,23.127,105.85,22.966,106.099,22.643z"/>
	<path fill="#FFFFFF" d="M111.446,24.266c-0.193-0.498-0.292-1.294-0.292-2.389c0-1.618,0.233-3.154,0.69-4.611
		c0.112-0.361,0.297-0.625,0.552-0.792c0.254-0.169,0.612-0.253,1.073-0.253c0.249,0,0.423,0.031,0.521,0.094
		c0.103,0.062,0.15,0.181,0.15,0.355c0,0.199-0.094,0.647-0.278,1.342c-0.126,0.499-0.225,0.934-0.3,1.309
		c-0.075,0.372-0.137,0.834-0.185,1.38c0.409-1.07,0.869-1.94,1.378-2.612c0.512-0.673,1.012-1.151,1.505-1.438
		c0.489-0.285,0.941-0.429,1.352-0.429c0.808,0,1.215,0.404,1.215,1.214c0,0.161-0.056,0.553-0.169,1.177
		c-0.099,0.496-0.149,0.807-0.149,0.933c0,0.435,0.155,0.653,0.466,0.653c0.348,0,0.798-0.274,1.346-0.822
		c0.161-0.161,0.33-0.242,0.504-0.242c0.16,0,0.289,0.071,0.38,0.215c0.097,0.143,0.142,0.333,0.142,0.569
		c0,0.461-0.123,0.82-0.372,1.083c-0.351,0.36-0.757,0.668-1.223,0.924c-0.466,0.255-0.964,0.383-1.485,0.383
		c-0.659,0-1.159-0.169-1.502-0.505s-0.514-0.79-0.514-1.362c0-0.187,0.019-0.374,0.056-0.561c0.024-0.249,0.038-0.417,0.038-0.504
		c0-0.197-0.07-0.298-0.206-0.298c-0.188,0-0.432,0.209-0.736,0.626c-0.306,0.416-0.605,0.968-0.905,1.65
		c-0.3,0.685-0.54,1.406-0.728,2.165c-0.14,0.586-0.297,0.981-0.477,1.186c-0.18,0.205-0.463,0.309-0.849,0.309
		C111.971,25.013,111.639,24.765,111.446,24.266z"/>
	<path fill="#FFFFFF" d="M120.06,24.172c-0.461-0.56-0.69-1.293-0.69-2.203c0-0.994,0.229-1.937,0.69-2.826
		c0.46-0.89,1.073-1.606,1.839-2.147c0.766-0.542,1.576-0.812,2.436-0.812c0.273,0,0.458,0.053,0.549,0.159
		c0.094,0.104,0.171,0.294,0.235,0.569c0.26-0.05,0.532-0.075,0.819-0.075c0.61,0,0.915,0.218,0.915,0.653
		c0,0.261-0.094,0.885-0.281,1.867c-0.283,1.431-0.428,2.428-0.428,2.986c0,0.187,0.045,0.336,0.142,0.448
		c0.091,0.112,0.214,0.168,0.361,0.168c0.238,0,0.522-0.151,0.859-0.456c0.337-0.307,0.789-0.802,1.362-1.484
		c0.149-0.175,0.318-0.262,0.503-0.262c0.163,0,0.292,0.074,0.383,0.223c0.094,0.151,0.142,0.356,0.142,0.617
		c0,0.497-0.117,0.882-0.355,1.158c-0.509,0.633-1.049,1.169-1.622,1.603c-0.573,0.437-1.13,0.655-1.662,0.655
		c-0.409,0-0.787-0.141-1.13-0.421c-0.343-0.279-0.6-0.662-0.773-1.148c-0.647,1.046-1.464,1.569-2.446,1.569
		C121.136,25.013,120.52,24.732,120.06,24.172z M123.362,22.643c0.249-0.324,0.429-0.754,0.541-1.289l0.69-3.434
		c-0.522,0.012-1.004,0.208-1.445,0.587c-0.441,0.38-0.795,0.882-1.055,1.503c-0.263,0.622-0.394,1.282-0.394,1.979
		c0,0.385,0.077,0.672,0.235,0.857c0.155,0.188,0.369,0.28,0.643,0.28C122.854,23.127,123.113,22.966,123.362,22.643z"/>
	<path fill="#FFFFFF" d="M138.322,21.026c0.094,0.155,0.139,0.354,0.139,0.589c0,0.287-0.043,0.511-0.131,0.671
		c-0.086,0.163-0.223,0.305-0.409,0.431c-1.071,0.722-1.855,1.257-2.351,1.604l-1.196,0.802c-0.471,2.576-1.092,4.602-1.854,6.076
		c-0.766,1.477-1.74,2.212-2.924,2.212c-0.634,0-1.15-0.195-1.549-0.587c-0.399-0.393-0.598-0.906-0.598-1.541
		c0-0.884,0.349-1.832,1.047-2.847c0.696-1.013,2.002-2.262,3.919-3.741l0.112-0.729c-0.215,0.335-0.49,0.596-0.83,0.773
		c-0.343,0.183-0.683,0.272-1.02,0.272c-0.771,0-1.387-0.28-1.847-0.841c-0.461-0.56-0.691-1.293-0.691-2.203
		c0-0.994,0.23-1.937,0.691-2.826c0.46-0.89,1.073-1.606,1.839-2.147c0.765-0.542,1.576-0.812,2.436-0.812
		c0.272,0,0.457,0.053,0.551,0.159c0.094,0.104,0.172,0.294,0.233,0.569c0.235-0.05,0.511-0.075,0.819-0.075
		c0.313,0,0.535,0.047,0.663,0.139c0.132,0.095,0.198,0.278,0.198,0.552c0,0.15-0.008,0.268-0.021,0.354
		c-0.048,0.385-0.203,1.362-0.466,2.931c-0.051,0.299-0.102,0.625-0.157,0.979c-0.057,0.354-0.115,0.731-0.177,1.13
		c0.958-0.747,1.879-1.405,2.762-1.979c0.161-0.1,0.303-0.149,0.429-0.149C138.103,20.794,138.229,20.873,138.322,21.026z
		 M130.856,30.481c0.392-0.748,0.769-1.935,1.127-3.564c-0.958,0.82-1.646,1.562-2.071,2.22c-0.42,0.66-0.632,1.238-0.632,1.736
		c0,0.211,0.037,0.387,0.12,0.522c0.081,0.137,0.215,0.205,0.402,0.205C130.112,31.601,130.464,31.228,130.856,30.481z
		 M132.171,22.604c0.263-0.348,0.45-0.847,0.563-1.493l0.597-3.192c-0.512,0.012-0.985,0.208-1.419,0.587
		c-0.436,0.38-0.784,0.882-1.046,1.503c-0.263,0.622-0.391,1.282-0.391,1.979c0,0.385,0.077,0.672,0.232,0.857
		c0.155,0.188,0.369,0.28,0.645,0.28C131.636,23.127,131.911,22.954,132.171,22.604z"/>
	<path fill="#FFFFFF" d="M146.03,20.979c0.094,0.151,0.14,0.356,0.14,0.617c0,0.497-0.118,0.882-0.354,1.158
		c-0.46,0.559-1.11,1.074-1.951,1.547c-0.841,0.475-1.74,0.711-2.698,0.711c-1.306,0-2.32-0.355-3.04-1.064
		c-0.723-0.709-1.082-1.68-1.082-2.912c0-0.857,0.18-1.657,0.541-2.398c0.358-0.74,0.859-1.327,1.502-1.764
		c0.64-0.435,1.364-0.653,2.176-0.653c0.72,0,1.298,0.214,1.734,0.646c0.437,0.428,0.653,1.009,0.653,1.745
		c0,0.857-0.309,1.594-0.924,2.211c-0.615,0.615-1.659,1.104-3.126,1.464c0.311,0.573,0.901,0.86,1.771,0.86
		c0.56,0,1.199-0.196,1.914-0.589c0.715-0.391,1.333-0.904,1.857-1.539c0.15-0.175,0.316-0.262,0.503-0.262
		C145.812,20.757,145.937,20.831,146.03,20.979z M139.778,18.852c-0.316,0.537-0.477,1.184-0.477,1.942v0.037
		c0.736-0.175,1.314-0.436,1.737-0.784c0.423-0.348,0.634-0.753,0.634-1.214c0-0.234-0.066-0.424-0.195-0.568
		c-0.131-0.144-0.311-0.214-0.532-0.214C140.484,18.05,140.097,18.318,139.778,18.852z"/>
	<path fill="#FFFFFF" d="M150.838,24.126c-0.998-0.629-1.494-1.591-1.494-2.885c0-0.683,0.118-1.206,0.354-1.567
		c0.235-0.36,0.584-0.541,1.044-0.541c0.338,0,0.61,0.087,0.822,0.262c0.211,0.175,0.318,0.398,0.318,0.671
		c0,0.249-0.019,0.466-0.057,0.653c0,0.05-0.008,0.137-0.026,0.261c-0.021,0.125-0.029,0.256-0.029,0.393
		c0,0.561,0.283,0.977,0.849,1.251c0.567,0.274,1.359,0.411,2.379,0.411c1.058,0,1.887-0.19,2.484-0.57
		c0.597-0.38,0.896-0.911,0.896-1.595c0-0.423-0.14-0.788-0.412-1.093c-0.273-0.305-0.616-0.559-1.025-0.765
		c-0.412-0.205-0.99-0.457-1.737-0.756c-0.958-0.374-1.739-0.728-2.342-1.063c-0.603-0.336-1.119-0.793-1.55-1.372
		c-0.429-0.58-0.643-1.298-0.643-2.157c0-0.896,0.238-1.692,0.718-2.389c0.479-0.696,1.169-1.238,2.071-1.625
		c0.902-0.384,1.962-0.578,3.183-0.578c0.907,0,1.742,0.135,2.503,0.403c0.757,0.266,1.365,0.674,1.817,1.222
		c0.455,0.547,0.683,1.219,0.683,2.016c0,0.784-0.118,1.376-0.356,1.773c-0.235,0.397-0.583,0.597-1.044,0.597
		c-0.323,0-0.594-0.099-0.813-0.297c-0.217-0.2-0.326-0.437-0.326-0.709c0-0.237,0.021-0.455,0.056-0.653
		c0.04-0.375,0.057-0.611,0.057-0.71c0-0.522-0.255-0.919-0.766-1.195c-0.509-0.273-1.144-0.409-1.903-0.409
		c-1.07,0-1.887,0.195-2.454,0.587c-0.565,0.392-0.849,0.942-0.849,1.651c0,0.474,0.145,0.878,0.438,1.214
		c0.292,0.334,0.656,0.616,1.093,0.839c0.434,0.225,1.044,0.492,1.828,0.804c0.944,0.385,1.705,0.733,2.277,1.045
		c0.573,0.31,1.06,0.733,1.467,1.268c0.404,0.536,0.605,1.196,0.605,1.979c0,1.469-0.558,2.598-1.671,3.388
		c-1.113,0.789-2.604,1.185-4.47,1.185C153.158,25.067,151.831,24.755,150.838,24.126z"/>
	<path fill="#FFFFFF" d="M162.987,24.172c-0.458-0.56-0.691-1.293-0.691-2.203c0-0.994,0.233-1.937,0.691-2.826
		c0.46-0.89,1.073-1.606,1.839-2.147c0.765-0.542,1.576-0.812,2.436-0.812c0.275,0,0.457,0.053,0.551,0.159
		c0.094,0.104,0.172,0.294,0.233,0.569c0.262-0.05,0.535-0.075,0.821-0.075c0.61,0,0.916,0.218,0.916,0.653
		c0,0.261-0.094,0.885-0.281,1.867c-0.287,1.431-0.429,2.428-0.429,2.986c0,0.187,0.046,0.336,0.14,0.448s0.214,0.168,0.364,0.168
		c0.235,0,0.521-0.151,0.858-0.456c0.335-0.307,0.79-0.802,1.362-1.484c0.15-0.175,0.319-0.262,0.504-0.262
		c0.163,0,0.289,0.074,0.383,0.223c0.094,0.151,0.142,0.356,0.142,0.617c0,0.497-0.12,0.882-0.356,1.158
		c-0.511,0.633-1.052,1.169-1.624,1.603c-0.573,0.437-1.127,0.655-1.662,0.655c-0.41,0-0.787-0.141-1.127-0.421
		c-0.343-0.279-0.603-0.662-0.776-1.148c-0.647,1.046-1.462,1.569-2.444,1.569C164.063,25.013,163.447,24.732,162.987,24.172z
		 M166.293,22.643c0.246-0.324,0.428-0.754,0.54-1.289l0.69-3.434c-0.521,0.012-1.006,0.208-1.448,0.587
		c-0.438,0.38-0.792,0.882-1.054,1.503c-0.26,0.622-0.392,1.282-0.392,1.979c0,0.385,0.078,0.672,0.233,0.857
		c0.155,0.188,0.369,0.28,0.645,0.28C165.781,23.127,166.044,22.966,166.293,22.643z"/>
	<path fill="#FFFFFF" d="M178.769,20.979c0.094,0.151,0.139,0.356,0.139,0.617c0,0.497-0.117,0.882-0.354,1.158
		c-0.535,0.658-1.118,1.2-1.745,1.623c-0.629,0.423-1.341,0.635-2.136,0.635c-1.098,0-1.908-0.498-2.438-1.494
		c-0.527-0.995-0.792-2.283-0.792-3.862c0-1.519,0.195-3.248,0.589-5.19c0.391-1.94,0.969-3.608,1.734-5.001
		c0.766-1.395,1.678-2.092,2.735-2.092c0.597,0,1.065,0.278,1.411,0.831c0.34,0.554,0.511,1.348,0.511,2.379
		c0,1.481-0.409,3.199-1.231,5.151c-0.821,1.955-1.935,3.889-3.34,5.806c0.085,0.51,0.228,0.874,0.428,1.092
		c0.201,0.217,0.461,0.326,0.784,0.326c0.512,0,0.958-0.146,1.344-0.438c0.386-0.292,0.878-0.792,1.475-1.502
		c0.15-0.175,0.316-0.262,0.504-0.262C178.546,20.757,178.675,20.831,178.769,20.979z M175.12,10.771
		c-0.361,1.033-0.68,2.314-0.953,3.845c-0.272,1.531-0.423,2.998-0.447,4.404c0.884-1.455,1.585-2.915,2.109-4.377
		c0.522-1.461,0.784-2.796,0.784-4.003c0-0.946-0.174-1.418-0.521-1.418C175.803,9.222,175.481,9.738,175.12,10.771z"/>
	<path fill="#FFFFFF" d="M186.104,20.979c0.094,0.151,0.14,0.356,0.14,0.617c0,0.497-0.118,0.882-0.354,1.158
		c-0.46,0.559-1.11,1.074-1.951,1.547c-0.841,0.475-1.74,0.711-2.698,0.711c-1.306,0-2.32-0.355-3.043-1.064
		c-0.72-0.709-1.082-1.68-1.082-2.912c0-0.857,0.18-1.657,0.541-2.398c0.361-0.74,0.862-1.327,1.504-1.764
		c0.641-0.435,1.365-0.653,2.174-0.653c0.723,0,1.301,0.214,1.734,0.646c0.437,0.428,0.653,1.009,0.653,1.745
		c0,0.857-0.306,1.594-0.924,2.211c-0.615,0.615-1.656,1.104-3.126,1.464c0.313,0.573,0.902,0.86,1.774,0.86
		c0.56,0,1.196-0.196,1.914-0.589c0.715-0.391,1.333-0.904,1.854-1.539c0.15-0.175,0.318-0.262,0.506-0.262
		C185.883,20.757,186.011,20.831,186.104,20.979z M179.853,18.852c-0.319,0.537-0.477,1.184-0.477,1.942v0.037
		c0.733-0.175,1.312-0.436,1.734-0.784c0.426-0.348,0.634-0.753,0.634-1.214c0-0.234-0.063-0.424-0.195-0.568
		c-0.131-0.144-0.308-0.214-0.529-0.214C180.559,18.05,180.168,18.318,179.853,18.852z"/>
	<path fill="#FFFFFF" d="M186.718,24.975c-0.34-0.298-0.512-0.634-0.512-1.008c0-0.323,0.118-0.604,0.354-0.84
		c0.238-0.236,0.586-0.354,1.047-0.354c0.163,0,0.354,0.015,0.57,0.047c0.217,0.029,0.383,0.052,0.495,0.065
		c-0.014-0.324-0.086-0.629-0.217-0.917c-0.132-0.285-0.295-0.562-0.493-0.829c-0.2-0.267-0.385-0.501-0.562-0.7
		c-0.386,0.733-0.769,1.345-1.148,1.829c-0.38,0.486-0.792,0.946-1.239,1.38c-0.225,0.225-0.46,0.337-0.709,0.337
		c-0.201,0-0.361-0.07-0.484-0.215c-0.126-0.142-0.188-0.32-0.188-0.531c0-0.249,0.085-0.479,0.26-0.69l0.243-0.299
		c0.686-0.846,1.199-1.543,1.55-2.091c0.211-0.361,0.458-0.843,0.747-1.446c0.283-0.604,0.564-1.23,0.838-1.876
		c0.237-0.547,0.728-0.82,1.475-0.82c0.348,0,0.591,0.031,0.728,0.092c0.137,0.063,0.206,0.164,0.206,0.3
		c0,0.075-0.023,0.193-0.074,0.354c-0.052,0.163-0.118,0.324-0.204,0.487c-0.225,0.447-0.337,0.827-0.337,1.138
		c0,0.186,0.064,0.392,0.195,0.616s0.335,0.503,0.607,0.841c0.396,0.522,0.698,0.967,0.905,1.334
		c0.206,0.366,0.308,0.769,0.308,1.204c0,0.125-0.014,0.298-0.038,0.522c0.61-0.237,1.325-0.865,2.147-1.885
		c0.149-0.175,0.315-0.262,0.503-0.262c0.16,0,0.292,0.074,0.383,0.223c0.094,0.151,0.139,0.356,0.139,0.617
		c0,0.473-0.117,0.858-0.354,1.158c-0.62,0.771-1.215,1.297-1.782,1.576s-1.266,0.434-2.099,0.458
		c-0.498,0.421-1.089,0.634-1.774,0.634C187.556,25.423,187.063,25.273,186.718,24.975z"/>
</g>
<g>
	<path fill="#FFFFFF" d="M-1.358,8.134c0.045-1.275,0.07-2.505-0.546-3.668C-3.311,1.805-6.69,1.14-8.97,3.086
		c-1.582,1.351-1.796,3.125-1.629,5.048C-7.514,8.134-4.455,8.134-1.358,8.134z"/>
	<path fill="#FFFFFF" d="M0.496,15.049c-0.003,0.681-0.366,1.067-0.937,1.055c-0.547-0.012-0.886-0.389-0.893-1.047
		c-0.014-1.235-0.005-2.471-0.005-3.705c0-0.413,0-0.824,0-1.249c-3.129,0-6.202,0-9.296,0c0,1.64,0.002,3.241-0.001,4.842
		c-0.002,0.73-0.327,1.14-0.895,1.159c-0.592,0.019-0.944-0.388-0.956-1.145c-0.014-0.768-0.003-1.536-0.003-2.302
		c0-0.847,0-1.694,0-2.566c-1,0-1.944,0-2.968,0c0,0.197,0,0.361,0,0.524c0,5.557,0,11.114,0,16.67c0,0.858,0.092,0.955,0.941,0.955
		c5.674,0,11.348,0,17.022,0c0.898,0,0.981-0.083,0.981-0.972c0-5.538,0-11.079,0-16.618c0-0.18,0-0.359,0-0.545
		c-1.02,0-1.99,0-2.986,0C0.5,11.782,0.507,13.415,0.496,15.049z"/>
	<path fill="#FFFFFF" d="M-5.996-5.053c-12.515,0-22.661,10.146-22.661,22.661s10.146,22.66,22.661,22.66
		c12.516,0,22.661-10.145,22.661-22.66S6.52-5.053-5.996-5.053z M5.34,27.362c0,1.413-0.627,2.337-1.814,2.663
		c-0.269,0.069-0.561,0.083-0.841,0.083c-5.792,0.006-11.584,0.008-17.377,0.003c-1.609-0.003-2.634-1.015-2.635-2.623
		c-0.008-6.028-0.004-12.052-0.002-18.079c0-0.877,0.328-1.193,1.225-1.2c1.001-0.006,2.003-0.001,3.004-0.001
		c0.18,0,0.359,0,0.632,0c0-0.667-0.026-1.279,0.004-1.889c0.225-4.689,5.318-7.648,9.447-5.438c2.184,1.17,3.381,3.065,3.506,5.577
		c0.028,0.562,0.003,1.127,0.003,1.75c1.044,0,2.026,0,3.006,0c1.767,0,1.843,0.078,1.843,1.828
		C5.341,15.811,5.343,21.586,5.34,27.362z"/>
</g>
</svg>
